<?xml version="1.0" encoding="UTF-8"?>
<!-- Generated by Pixelmator Pro 3.6.14 -->
<svg width="200" height="48" viewBox="0 0 200 48" xmlns="http://www.w3.org/2000/svg">
    <g id="Group-copy">
        <path id="Path" fill="#2563eb" stroke="none" d="M 7.9872 0 L 191.692795 0 C 196.104004 0 199.679993 3.581722 199.679993 8 L 199.679993 40 C 199.679993 44.418278 196.104004 48 191.692795 48 L 7.9872 48 C 3.575991 48 -0 44.418278 -0 40 L -0 8 C -0 3.581722 3.575991 0 7.9872 0 Z"/>
        <text id="Google-Docs" xml:space="preserve" x="33" y="30" font-family="Arial" font-size="15.9872" font-weight="700" fill="#ffffff">Google Docs</text>
        <path id="doc-white" fill="#ffffff" stroke="none" d="M 169.04837 15.403805 L 161.04837 7.403805 C 160.917938 7.273369 160.741302 7.200001 160.556519 7.200001 L 148.029343 7.200001 C 146.689667 7.200001 145.600006 8.286957 145.600006 9.621197 L 145.600006 36.349457 C 145.600006 37.920109 146.882614 39.200001 148.461411 39.200001 L 166.390762 39.200001 C 167.969559 39.200001 169.252167 37.920109 169.252167 36.349457 L 169.252167 15.895653 C 169.252167 15.710869 169.178802 15.534241 169.04837 15.403805 Z M 158.121735 32.243477 L 151.86087 32.243477 L 151.86087 30.852175 L 158.121735 30.852175 Z M 162.991302 29.460869 L 151.86087 29.460869 L 151.86087 28.069565 L 162.991302 28.069565 Z M 162.991302 26.678261 L 151.86087 26.678261 L 151.86087 25.286957 L 162.991302 25.286957 Z M 162.991302 23.895653 L 151.86087 23.895653 L 151.86087 22.504349 L 162.991302 22.504349 Z M 162.064667 15.547825 C 161.42337 15.547825 160.904343 15.028805 160.904343 14.387501 L 160.904343 9.227173 L 167.225006 15.547825 Z"/>
    </g>
</svg>
